<?xml version="1.0" encoding="utf-8" standalone="no"?>
<!DOCTYPE svg PUBLIC "-//W3C//DTD SVG 1.1//EN"
  "http://www.w3.org/Graphics/SVG/1.1/DTD/svg11.dtd">
<svg xmlns:xlink="http://www.w3.org/1999/xlink" width="460.31625pt" height="388.65125pt" viewBox="0 0 460.31625 388.65125" xmlns="http://www.w3.org/2000/svg" version="1.1">
 <metadata>
  <rdf:RDF xmlns:dc="http://purl.org/dc/elements/1.1/" xmlns:cc="http://creativecommons.org/ns#" xmlns:rdf="http://www.w3.org/1999/02/22-rdf-syntax-ns#">
   <cc:Work>
    <dc:type rdf:resource="http://purl.org/dc/dcmitype/StillImage"/>
    <dc:date>2025-09-22T17:43:45.660308</dc:date>
    <dc:format>image/svg+xml</dc:format>
    <dc:creator>
     <cc:Agent>
      <dc:title>Matplotlib v3.10.0, https://matplotlib.org/</dc:title>
     </cc:Agent>
    </dc:creator>
   </cc:Work>
  </rdf:RDF>
 </metadata>
 <defs>
  <style type="text/css">*{stroke-linejoin: round; stroke-linecap: butt}</style>
 </defs>
 <g id="figure_1">
  <g id="patch_1">
   <path d="M 0 388.65125 
L 460.31625 388.65125 
L 460.31625 0 
L 0 0 
z
" style="fill: #ffffff"/>
  </g>
  <g id="axes_1">
   <g id="patch_2">
    <path d="M 56.50625 350.816875 
L 453.11625 350.816875 
L 453.11625 22.318125 
L 56.50625 22.318125 
z
" style="fill: #ffffff"/>
   </g>
   <g id="PathCollection_1">
    <defs>
     <path id="ma0f5db5194" d="M 0 3 
C 0.795609 3 1.55874 2.683901 2.12132 2.12132 
C 2.683901 1.55874 3 0.795609 3 0 
C 3 -0.795609 2.683901 -1.55874 2.12132 -2.12132 
C 1.55874 -2.683901 0.795609 -3 0 -3 
C -0.795609 -3 -1.55874 -2.683901 -2.12132 -2.12132 
C -2.683901 -1.55874 -3 -0.795609 -3 0 
C -3 0.795609 -2.683901 1.55874 -2.12132 2.12132 
C -1.55874 2.683901 -0.795609 3 0 3 
z
" style="stroke: #1f77b4"/>
    </defs>
    <g clip-path="url(#pa820ad0e35)">
     <use xlink:href="#ma0f5db5194" x="435.088523" y="168.649386" style="fill: #1f77b4; stroke: #1f77b4"/>
     <use xlink:href="#ma0f5db5194" x="381.937858" y="85.031523" style="fill: #1f77b4; stroke: #1f77b4"/>
     <use xlink:href="#ma0f5db5194" x="364.041336" y="180.594795" style="fill: #1f77b4; stroke: #1f77b4"/>
     <use xlink:href="#ma0f5db5194" x="305.811103" y="132.813159" style="fill: #1f77b4; stroke: #1f77b4"/>
     <use xlink:href="#ma0f5db5194" x="256.606367" y="132.813159" style="fill: #1f77b4; stroke: #1f77b4"/>
     <use xlink:href="#ma0f5db5194" x="150.587969" y="37.249886" style="fill: #1f77b4; stroke: #1f77b4"/>
     <use xlink:href="#ma0f5db5194" x="128.972309" y="85.031523" style="fill: #1f77b4; stroke: #1f77b4"/>
     <use xlink:href="#ma0f5db5194" x="107.857363" y="204.485614" style="fill: #1f77b4; stroke: #1f77b4"/>
     <use xlink:href="#ma0f5db5194" x="98.369096" y="144.758568" style="fill: #1f77b4; stroke: #1f77b4"/>
     <use xlink:href="#ma0f5db5194" x="94.197785" y="96.976932" style="fill: #1f77b4; stroke: #1f77b4"/>
     <use xlink:href="#ma0f5db5194" x="89.13274" y="132.813159" style="fill: #1f77b4; stroke: #1f77b4"/>
     <use xlink:href="#ma0f5db5194" x="88.716238" y="144.758568" style="fill: #1f77b4; stroke: #1f77b4"/>
     <use xlink:href="#ma0f5db5194" x="87.535047" y="132.813159" style="fill: #1f77b4; stroke: #1f77b4"/>
     <use xlink:href="#ma0f5db5194" x="86.84789" y="144.758568" style="fill: #1f77b4; stroke: #1f77b4"/>
     <use xlink:href="#ma0f5db5194" x="85.975516" y="228.376432" style="fill: #1f77b4; stroke: #1f77b4"/>
     <use xlink:href="#ma0f5db5194" x="84.775924" y="335.885114" style="fill: #1f77b4; stroke: #1f77b4"/>
     <use xlink:href="#ma0f5db5194" x="84.768967" y="85.031523" style="fill: #1f77b4; stroke: #1f77b4"/>
     <use xlink:href="#ma0f5db5194" x="81.070513" y="132.813159" style="fill: #1f77b4; stroke: #1f77b4"/>
     <use xlink:href="#ma0f5db5194" x="76.959948" y="204.485614" style="fill: #1f77b4; stroke: #1f77b4"/>
     <use xlink:href="#ma0f5db5194" x="74.533977" y="96.976932" style="fill: #1f77b4; stroke: #1f77b4"/>
    </g>
   </g>
   <g id="matplotlib.axis_1">
    <g id="xtick_1">
     <g id="line2d_1">
      <defs>
       <path id="ma8e8cf5422" d="M 0 0 
L 0 3.5 
" style="stroke: #000000; stroke-width: 0.8"/>
      </defs>
      <g>
       <use xlink:href="#ma8e8cf5422" x="109.546911" y="350.816875" style="stroke: #000000; stroke-width: 0.8"/>
      </g>
     </g>
     <g id="text_1">
      <!-- 0.995 -->
      <g transform="translate(95.232849 365.415312) scale(0.1 -0.1)">
       <defs>
        <path id="DejaVuSans-30" d="M 2034 4250 
Q 1547 4250 1301 3770 
Q 1056 3291 1056 2328 
Q 1056 1369 1301 889 
Q 1547 409 2034 409 
Q 2525 409 2770 889 
Q 3016 1369 3016 2328 
Q 3016 3291 2770 3770 
Q 2525 4250 2034 4250 
z
M 2034 4750 
Q 2819 4750 3233 4129 
Q 3647 3509 3647 2328 
Q 3647 1150 3233 529 
Q 2819 -91 2034 -91 
Q 1250 -91 836 529 
Q 422 1150 422 2328 
Q 422 3509 836 4129 
Q 1250 4750 2034 4750 
z
" transform="scale(0.015625)"/>
        <path id="DejaVuSans-2e" d="M 684 794 
L 1344 794 
L 1344 0 
L 684 0 
L 684 794 
z
" transform="scale(0.015625)"/>
        <path id="DejaVuSans-39" d="M 703 97 
L 703 672 
Q 941 559 1184 500 
Q 1428 441 1663 441 
Q 2288 441 2617 861 
Q 2947 1281 2994 2138 
Q 2813 1869 2534 1725 
Q 2256 1581 1919 1581 
Q 1219 1581 811 2004 
Q 403 2428 403 3163 
Q 403 3881 828 4315 
Q 1253 4750 1959 4750 
Q 2769 4750 3195 4129 
Q 3622 3509 3622 2328 
Q 3622 1225 3098 567 
Q 2575 -91 1691 -91 
Q 1453 -91 1209 -44 
Q 966 3 703 97 
z
M 1959 2075 
Q 2384 2075 2632 2365 
Q 2881 2656 2881 3163 
Q 2881 3666 2632 3958 
Q 2384 4250 1959 4250 
Q 1534 4250 1286 3958 
Q 1038 3666 1038 3163 
Q 1038 2656 1286 2365 
Q 1534 2075 1959 2075 
z
" transform="scale(0.015625)"/>
        <path id="DejaVuSans-35" d="M 691 4666 
L 3169 4666 
L 3169 4134 
L 1269 4134 
L 1269 2991 
Q 1406 3038 1543 3061 
Q 1681 3084 1819 3084 
Q 2600 3084 3056 2656 
Q 3513 2228 3513 1497 
Q 3513 744 3044 326 
Q 2575 -91 1722 -91 
Q 1428 -91 1123 -41 
Q 819 9 494 109 
L 494 744 
Q 775 591 1075 516 
Q 1375 441 1709 441 
Q 2250 441 2565 725 
Q 2881 1009 2881 1497 
Q 2881 1984 2565 2268 
Q 2250 2553 1709 2553 
Q 1456 2553 1204 2497 
Q 953 2441 691 2322 
L 691 4666 
z
" transform="scale(0.015625)"/>
       </defs>
       <use xlink:href="#DejaVuSans-30"/>
       <use xlink:href="#DejaVuSans-2e" transform="translate(63.623047 0)"/>
       <use xlink:href="#DejaVuSans-39" transform="translate(95.410156 0)"/>
       <use xlink:href="#DejaVuSans-39" transform="translate(159.033203 0)"/>
       <use xlink:href="#DejaVuSans-35" transform="translate(222.65625 0)"/>
      </g>
     </g>
    </g>
    <g id="xtick_2">
     <g id="line2d_2">
      <g>
       <use xlink:href="#ma8e8cf5422" x="174.655234" y="350.816875" style="stroke: #000000; stroke-width: 0.8"/>
      </g>
     </g>
     <g id="text_2">
      <!-- 0.996 -->
      <g transform="translate(160.341171 365.415312) scale(0.1 -0.1)">
       <defs>
        <path id="DejaVuSans-36" d="M 2113 2584 
Q 1688 2584 1439 2293 
Q 1191 2003 1191 1497 
Q 1191 994 1439 701 
Q 1688 409 2113 409 
Q 2538 409 2786 701 
Q 3034 994 3034 1497 
Q 3034 2003 2786 2293 
Q 2538 2584 2113 2584 
z
M 3366 4563 
L 3366 3988 
Q 3128 4100 2886 4159 
Q 2644 4219 2406 4219 
Q 1781 4219 1451 3797 
Q 1122 3375 1075 2522 
Q 1259 2794 1537 2939 
Q 1816 3084 2150 3084 
Q 2853 3084 3261 2657 
Q 3669 2231 3669 1497 
Q 3669 778 3244 343 
Q 2819 -91 2113 -91 
Q 1303 -91 875 529 
Q 447 1150 447 2328 
Q 447 3434 972 4092 
Q 1497 4750 2381 4750 
Q 2619 4750 2861 4703 
Q 3103 4656 3366 4563 
z
" transform="scale(0.015625)"/>
       </defs>
       <use xlink:href="#DejaVuSans-30"/>
       <use xlink:href="#DejaVuSans-2e" transform="translate(63.623047 0)"/>
       <use xlink:href="#DejaVuSans-39" transform="translate(95.410156 0)"/>
       <use xlink:href="#DejaVuSans-39" transform="translate(159.033203 0)"/>
       <use xlink:href="#DejaVuSans-36" transform="translate(222.65625 0)"/>
      </g>
     </g>
    </g>
    <g id="xtick_3">
     <g id="line2d_3">
      <g>
       <use xlink:href="#ma8e8cf5422" x="239.763556" y="350.816875" style="stroke: #000000; stroke-width: 0.8"/>
      </g>
     </g>
     <g id="text_3">
      <!-- 0.997 -->
      <g transform="translate(225.449493 365.415312) scale(0.1 -0.1)">
       <defs>
        <path id="DejaVuSans-37" d="M 525 4666 
L 3525 4666 
L 3525 4397 
L 1831 0 
L 1172 0 
L 2766 4134 
L 525 4134 
L 525 4666 
z
" transform="scale(0.015625)"/>
       </defs>
       <use xlink:href="#DejaVuSans-30"/>
       <use xlink:href="#DejaVuSans-2e" transform="translate(63.623047 0)"/>
       <use xlink:href="#DejaVuSans-39" transform="translate(95.410156 0)"/>
       <use xlink:href="#DejaVuSans-39" transform="translate(159.033203 0)"/>
       <use xlink:href="#DejaVuSans-37" transform="translate(222.65625 0)"/>
      </g>
     </g>
    </g>
    <g id="xtick_4">
     <g id="line2d_4">
      <g>
       <use xlink:href="#ma8e8cf5422" x="304.871878" y="350.816875" style="stroke: #000000; stroke-width: 0.8"/>
      </g>
     </g>
     <g id="text_4">
      <!-- 0.998 -->
      <g transform="translate(290.557816 365.415312) scale(0.1 -0.1)">
       <defs>
        <path id="DejaVuSans-38" d="M 2034 2216 
Q 1584 2216 1326 1975 
Q 1069 1734 1069 1313 
Q 1069 891 1326 650 
Q 1584 409 2034 409 
Q 2484 409 2743 651 
Q 3003 894 3003 1313 
Q 3003 1734 2745 1975 
Q 2488 2216 2034 2216 
z
M 1403 2484 
Q 997 2584 770 2862 
Q 544 3141 544 3541 
Q 544 4100 942 4425 
Q 1341 4750 2034 4750 
Q 2731 4750 3128 4425 
Q 3525 4100 3525 3541 
Q 3525 3141 3298 2862 
Q 3072 2584 2669 2484 
Q 3125 2378 3379 2068 
Q 3634 1759 3634 1313 
Q 3634 634 3220 271 
Q 2806 -91 2034 -91 
Q 1263 -91 848 271 
Q 434 634 434 1313 
Q 434 1759 690 2068 
Q 947 2378 1403 2484 
z
M 1172 3481 
Q 1172 3119 1398 2916 
Q 1625 2713 2034 2713 
Q 2441 2713 2670 2916 
Q 2900 3119 2900 3481 
Q 2900 3844 2670 4047 
Q 2441 4250 2034 4250 
Q 1625 4250 1398 4047 
Q 1172 3844 1172 3481 
z
" transform="scale(0.015625)"/>
       </defs>
       <use xlink:href="#DejaVuSans-30"/>
       <use xlink:href="#DejaVuSans-2e" transform="translate(63.623047 0)"/>
       <use xlink:href="#DejaVuSans-39" transform="translate(95.410156 0)"/>
       <use xlink:href="#DejaVuSans-39" transform="translate(159.033203 0)"/>
       <use xlink:href="#DejaVuSans-38" transform="translate(222.65625 0)"/>
      </g>
     </g>
    </g>
    <g id="xtick_5">
     <g id="line2d_5">
      <g>
       <use xlink:href="#ma8e8cf5422" x="369.9802" y="350.816875" style="stroke: #000000; stroke-width: 0.8"/>
      </g>
     </g>
     <g id="text_5">
      <!-- 0.999 -->
      <g transform="translate(355.666138 365.415312) scale(0.1 -0.1)">
       <use xlink:href="#DejaVuSans-30"/>
       <use xlink:href="#DejaVuSans-2e" transform="translate(63.623047 0)"/>
       <use xlink:href="#DejaVuSans-39" transform="translate(95.410156 0)"/>
       <use xlink:href="#DejaVuSans-39" transform="translate(159.033203 0)"/>
       <use xlink:href="#DejaVuSans-39" transform="translate(222.65625 0)"/>
      </g>
     </g>
    </g>
    <g id="xtick_6">
     <g id="line2d_6">
      <g>
       <use xlink:href="#ma8e8cf5422" x="435.088523" y="350.816875" style="stroke: #000000; stroke-width: 0.8"/>
      </g>
     </g>
     <g id="text_6">
      <!-- 1.000 -->
      <g transform="translate(420.77446 365.415312) scale(0.1 -0.1)">
       <defs>
        <path id="DejaVuSans-31" d="M 794 531 
L 1825 531 
L 1825 4091 
L 703 3866 
L 703 4441 
L 1819 4666 
L 2450 4666 
L 2450 531 
L 3481 531 
L 3481 0 
L 794 0 
L 794 531 
z
" transform="scale(0.015625)"/>
       </defs>
       <use xlink:href="#DejaVuSans-31"/>
       <use xlink:href="#DejaVuSans-2e" transform="translate(63.623047 0)"/>
       <use xlink:href="#DejaVuSans-30" transform="translate(95.410156 0)"/>
       <use xlink:href="#DejaVuSans-30" transform="translate(159.033203 0)"/>
       <use xlink:href="#DejaVuSans-30" transform="translate(222.65625 0)"/>
      </g>
     </g>
    </g>
    <g id="text_7">
     <!-- S_total -->
     <g transform="translate(237.704219 379.093437) scale(0.1 -0.1)">
      <defs>
       <path id="DejaVuSans-53" d="M 3425 4513 
L 3425 3897 
Q 3066 4069 2747 4153 
Q 2428 4238 2131 4238 
Q 1616 4238 1336 4038 
Q 1056 3838 1056 3469 
Q 1056 3159 1242 3001 
Q 1428 2844 1947 2747 
L 2328 2669 
Q 3034 2534 3370 2195 
Q 3706 1856 3706 1288 
Q 3706 609 3251 259 
Q 2797 -91 1919 -91 
Q 1588 -91 1214 -16 
Q 841 59 441 206 
L 441 856 
Q 825 641 1194 531 
Q 1563 422 1919 422 
Q 2459 422 2753 634 
Q 3047 847 3047 1241 
Q 3047 1584 2836 1778 
Q 2625 1972 2144 2069 
L 1759 2144 
Q 1053 2284 737 2584 
Q 422 2884 422 3419 
Q 422 4038 858 4394 
Q 1294 4750 2059 4750 
Q 2388 4750 2728 4690 
Q 3069 4631 3425 4513 
z
" transform="scale(0.015625)"/>
       <path id="DejaVuSans-5f" d="M 3263 -1063 
L 3263 -1509 
L -63 -1509 
L -63 -1063 
L 3263 -1063 
z
" transform="scale(0.015625)"/>
       <path id="DejaVuSans-74" d="M 1172 4494 
L 1172 3500 
L 2356 3500 
L 2356 3053 
L 1172 3053 
L 1172 1153 
Q 1172 725 1289 603 
Q 1406 481 1766 481 
L 2356 481 
L 2356 0 
L 1766 0 
Q 1100 0 847 248 
Q 594 497 594 1153 
L 594 3053 
L 172 3053 
L 172 3500 
L 594 3500 
L 594 4494 
L 1172 4494 
z
" transform="scale(0.015625)"/>
       <path id="DejaVuSans-6f" d="M 1959 3097 
Q 1497 3097 1228 2736 
Q 959 2375 959 1747 
Q 959 1119 1226 758 
Q 1494 397 1959 397 
Q 2419 397 2687 759 
Q 2956 1122 2956 1747 
Q 2956 2369 2687 2733 
Q 2419 3097 1959 3097 
z
M 1959 3584 
Q 2709 3584 3137 3096 
Q 3566 2609 3566 1747 
Q 3566 888 3137 398 
Q 2709 -91 1959 -91 
Q 1206 -91 779 398 
Q 353 888 353 1747 
Q 353 2609 779 3096 
Q 1206 3584 1959 3584 
z
" transform="scale(0.015625)"/>
       <path id="DejaVuSans-61" d="M 2194 1759 
Q 1497 1759 1228 1600 
Q 959 1441 959 1056 
Q 959 750 1161 570 
Q 1363 391 1709 391 
Q 2188 391 2477 730 
Q 2766 1069 2766 1631 
L 2766 1759 
L 2194 1759 
z
M 3341 1997 
L 3341 0 
L 2766 0 
L 2766 531 
Q 2569 213 2275 61 
Q 1981 -91 1556 -91 
Q 1019 -91 701 211 
Q 384 513 384 1019 
Q 384 1609 779 1909 
Q 1175 2209 1959 2209 
L 2766 2209 
L 2766 2266 
Q 2766 2663 2505 2880 
Q 2244 3097 1772 3097 
Q 1472 3097 1187 3025 
Q 903 2953 641 2809 
L 641 3341 
Q 956 3463 1253 3523 
Q 1550 3584 1831 3584 
Q 2591 3584 2966 3190 
Q 3341 2797 3341 1997 
z
" transform="scale(0.015625)"/>
       <path id="DejaVuSans-6c" d="M 603 4863 
L 1178 4863 
L 1178 0 
L 603 0 
L 603 4863 
z
" transform="scale(0.015625)"/>
      </defs>
      <use xlink:href="#DejaVuSans-53"/>
      <use xlink:href="#DejaVuSans-5f" transform="translate(63.476562 0)"/>
      <use xlink:href="#DejaVuSans-74" transform="translate(113.476562 0)"/>
      <use xlink:href="#DejaVuSans-6f" transform="translate(152.685547 0)"/>
      <use xlink:href="#DejaVuSans-74" transform="translate(213.867188 0)"/>
      <use xlink:href="#DejaVuSans-61" transform="translate(253.076172 0)"/>
      <use xlink:href="#DejaVuSans-6c" transform="translate(314.355469 0)"/>
     </g>
    </g>
   </g>
   <g id="matplotlib.axis_2">
    <g id="ytick_1">
     <g id="line2d_7">
      <defs>
       <path id="m233c01a5a5" d="M 0 0 
L -3.5 0 
" style="stroke: #000000; stroke-width: 0.8"/>
      </defs>
      <g>
       <use xlink:href="#m233c01a5a5" x="56.50625" y="311.994295" style="stroke: #000000; stroke-width: 0.8"/>
      </g>
     </g>
     <g id="text_8">
      <!-- 0.795 -->
      <g transform="translate(20.878125 315.793514) scale(0.1 -0.1)">
       <use xlink:href="#DejaVuSans-30"/>
       <use xlink:href="#DejaVuSans-2e" transform="translate(63.623047 0)"/>
       <use xlink:href="#DejaVuSans-37" transform="translate(95.410156 0)"/>
       <use xlink:href="#DejaVuSans-39" transform="translate(159.033203 0)"/>
       <use xlink:href="#DejaVuSans-35" transform="translate(222.65625 0)"/>
      </g>
     </g>
    </g>
    <g id="ytick_2">
     <g id="line2d_8">
      <g>
       <use xlink:href="#m233c01a5a5" x="56.50625" y="252.26725" style="stroke: #000000; stroke-width: 0.8"/>
      </g>
     </g>
     <g id="text_9">
      <!-- 0.800 -->
      <g transform="translate(20.878125 256.066469) scale(0.1 -0.1)">
       <use xlink:href="#DejaVuSans-30"/>
       <use xlink:href="#DejaVuSans-2e" transform="translate(63.623047 0)"/>
       <use xlink:href="#DejaVuSans-38" transform="translate(95.410156 0)"/>
       <use xlink:href="#DejaVuSans-30" transform="translate(159.033203 0)"/>
       <use xlink:href="#DejaVuSans-30" transform="translate(222.65625 0)"/>
      </g>
     </g>
    </g>
    <g id="ytick_3">
     <g id="line2d_9">
      <g>
       <use xlink:href="#m233c01a5a5" x="56.50625" y="192.540205" style="stroke: #000000; stroke-width: 0.8"/>
      </g>
     </g>
     <g id="text_10">
      <!-- 0.805 -->
      <g transform="translate(20.878125 196.339423) scale(0.1 -0.1)">
       <use xlink:href="#DejaVuSans-30"/>
       <use xlink:href="#DejaVuSans-2e" transform="translate(63.623047 0)"/>
       <use xlink:href="#DejaVuSans-38" transform="translate(95.410156 0)"/>
       <use xlink:href="#DejaVuSans-30" transform="translate(159.033203 0)"/>
       <use xlink:href="#DejaVuSans-35" transform="translate(222.65625 0)"/>
      </g>
     </g>
    </g>
    <g id="ytick_4">
     <g id="line2d_10">
      <g>
       <use xlink:href="#m233c01a5a5" x="56.50625" y="132.813159" style="stroke: #000000; stroke-width: 0.8"/>
      </g>
     </g>
     <g id="text_11">
      <!-- 0.810 -->
      <g transform="translate(20.878125 136.612378) scale(0.1 -0.1)">
       <use xlink:href="#DejaVuSans-30"/>
       <use xlink:href="#DejaVuSans-2e" transform="translate(63.623047 0)"/>
       <use xlink:href="#DejaVuSans-38" transform="translate(95.410156 0)"/>
       <use xlink:href="#DejaVuSans-31" transform="translate(159.033203 0)"/>
       <use xlink:href="#DejaVuSans-30" transform="translate(222.65625 0)"/>
      </g>
     </g>
    </g>
    <g id="ytick_5">
     <g id="line2d_11">
      <g>
       <use xlink:href="#m233c01a5a5" x="56.50625" y="73.086114" style="stroke: #000000; stroke-width: 0.8"/>
      </g>
     </g>
     <g id="text_12">
      <!-- 0.815 -->
      <g transform="translate(20.878125 76.885332) scale(0.1 -0.1)">
       <use xlink:href="#DejaVuSans-30"/>
       <use xlink:href="#DejaVuSans-2e" transform="translate(63.623047 0)"/>
       <use xlink:href="#DejaVuSans-38" transform="translate(95.410156 0)"/>
       <use xlink:href="#DejaVuSans-31" transform="translate(159.033203 0)"/>
       <use xlink:href="#DejaVuSans-35" transform="translate(222.65625 0)"/>
      </g>
     </g>
    </g>
    <g id="text_13">
     <!-- F1 -->
     <g transform="translate(14.798438 192.624531) rotate(-90) scale(0.1 -0.1)">
      <defs>
       <path id="DejaVuSans-46" d="M 628 4666 
L 3309 4666 
L 3309 4134 
L 1259 4134 
L 1259 2759 
L 3109 2759 
L 3109 2228 
L 1259 2228 
L 1259 0 
L 628 0 
L 628 4666 
z
" transform="scale(0.015625)"/>
      </defs>
      <use xlink:href="#DejaVuSans-46"/>
      <use xlink:href="#DejaVuSans-31" transform="translate(57.519531 0)"/>
     </g>
    </g>
   </g>
   <g id="line2d_12">
    <path d="M 74.533977 149.632443 
L 78.175942 149.446259 
L 81.817907 149.260076 
L 85.459873 149.073892 
L 89.101838 148.887709 
L 92.743803 148.701526 
L 96.385768 148.515342 
L 100.027733 148.329159 
L 103.669698 148.142975 
L 107.311663 147.956792 
L 110.953628 147.770608 
L 114.595593 147.584425 
L 118.237559 147.398241 
L 121.879524 147.212058 
L 125.521489 147.025874 
L 129.163454 146.839691 
L 132.805419 146.653507 
L 136.447384 146.467324 
L 140.089349 146.28114 
L 143.731314 146.094957 
L 147.373279 145.908773 
L 151.015244 145.72259 
L 154.65721 145.536406 
L 158.299175 145.350223 
L 161.94114 145.164039 
L 165.583105 144.977856 
L 169.22507 144.791672 
L 172.867035 144.605489 
L 176.509 144.419305 
L 180.150965 144.233122 
L 183.79293 144.046938 
L 187.434896 143.860755 
L 191.076861 143.674572 
L 194.718826 143.488388 
L 198.360791 143.302205 
L 202.002756 143.116021 
L 205.644721 142.929838 
L 209.286686 142.743654 
L 212.928651 142.557471 
L 216.570616 142.371287 
L 220.212581 142.185104 
L 223.854547 141.99892 
L 227.496512 141.812737 
L 231.138477 141.626553 
L 234.780442 141.44037 
L 238.422407 141.254186 
L 242.064372 141.068003 
L 245.706337 140.881819 
L 249.348302 140.695636 
L 252.990267 140.509452 
L 256.632233 140.323269 
L 260.274198 140.137085 
L 263.916163 139.950902 
L 267.558128 139.764718 
L 271.200093 139.578535 
L 274.842058 139.392351 
L 278.484023 139.206168 
L 282.125988 139.019984 
L 285.767953 138.833801 
L 289.409919 138.647618 
L 293.051884 138.461434 
L 296.693849 138.275251 
L 300.335814 138.089067 
L 303.977779 137.902884 
L 307.619744 137.7167 
L 311.261709 137.530517 
L 314.903674 137.344333 
L 318.545639 137.15815 
L 322.187604 136.971966 
L 325.82957 136.785783 
L 329.471535 136.599599 
L 333.1135 136.413416 
L 336.755465 136.227232 
L 340.39743 136.041049 
L 344.039395 135.854865 
L 347.68136 135.668682 
L 351.323325 135.482498 
L 354.96529 135.296315 
L 358.607256 135.110131 
L 362.249221 134.923948 
L 365.891186 134.737764 
L 369.533151 134.551581 
L 373.175116 134.365397 
L 376.817081 134.179214 
L 380.459046 133.99303 
L 384.101011 133.806847 
L 387.742976 133.620664 
L 391.384941 133.43448 
L 395.026907 133.248297 
L 398.668872 133.062113 
L 402.310837 132.87593 
L 405.952802 132.689746 
L 409.594767 132.503563 
L 413.236732 132.317379 
L 416.878697 132.131196 
L 420.520662 131.945012 
L 424.162627 131.758829 
L 427.804593 131.572645 
L 431.446558 131.386462 
L 435.088523 131.200278 
" clip-path="url(#pa820ad0e35)" style="fill: none; stroke: #1f77b4; stroke-width: 1.5; stroke-linecap: square"/>
   </g>
   <g id="patch_3">
    <path d="M 56.50625 350.816875 
L 56.50625 22.318125 
" style="fill: none; stroke: #000000; stroke-width: 0.8; stroke-linejoin: miter; stroke-linecap: square"/>
   </g>
   <g id="patch_4">
    <path d="M 453.11625 350.816875 
L 453.11625 22.318125 
" style="fill: none; stroke: #000000; stroke-width: 0.8; stroke-linejoin: miter; stroke-linecap: square"/>
   </g>
   <g id="patch_5">
    <path d="M 56.50625 350.816875 
L 453.11625 350.816875 
" style="fill: none; stroke: #000000; stroke-width: 0.8; stroke-linejoin: miter; stroke-linecap: square"/>
   </g>
   <g id="patch_6">
    <path d="M 56.50625 22.318125 
L 453.11625 22.318125 
" style="fill: none; stroke: #000000; stroke-width: 0.8; stroke-linejoin: miter; stroke-linecap: square"/>
   </g>
   <g id="text_14">
    <!-- twi -->
    <g transform="translate(438.088523 165.649386) scale(0.08 -0.08)">
     <defs>
      <path id="DejaVuSans-77" d="M 269 3500 
L 844 3500 
L 1563 769 
L 2278 3500 
L 2956 3500 
L 3675 769 
L 4391 3500 
L 4966 3500 
L 4050 0 
L 3372 0 
L 2619 2869 
L 1863 0 
L 1184 0 
L 269 3500 
z
" transform="scale(0.015625)"/>
      <path id="DejaVuSans-69" d="M 603 3500 
L 1178 3500 
L 1178 0 
L 603 0 
L 603 3500 
z
M 603 4863 
L 1178 4863 
L 1178 4134 
L 603 4134 
L 603 4863 
z
" transform="scale(0.015625)"/>
     </defs>
     <use xlink:href="#DejaVuSans-74"/>
     <use xlink:href="#DejaVuSans-77" transform="translate(39.208984 0)"/>
     <use xlink:href="#DejaVuSans-69" transform="translate(120.996094 0)"/>
    </g>
   </g>
   <g id="text_15">
    <!-- kin -->
    <g transform="translate(384.937858 82.031523) scale(0.08 -0.08)">
     <defs>
      <path id="DejaVuSans-6b" d="M 581 4863 
L 1159 4863 
L 1159 1991 
L 2875 3500 
L 3609 3500 
L 1753 1863 
L 3688 0 
L 2938 0 
L 1159 1709 
L 1159 0 
L 581 0 
L 581 4863 
z
" transform="scale(0.015625)"/>
      <path id="DejaVuSans-6e" d="M 3513 2113 
L 3513 0 
L 2938 0 
L 2938 2094 
Q 2938 2591 2744 2837 
Q 2550 3084 2163 3084 
Q 1697 3084 1428 2787 
Q 1159 2491 1159 1978 
L 1159 0 
L 581 0 
L 581 3500 
L 1159 3500 
L 1159 2956 
Q 1366 3272 1645 3428 
Q 1925 3584 2291 3584 
Q 2894 3584 3203 3211 
Q 3513 2838 3513 2113 
z
" transform="scale(0.015625)"/>
     </defs>
     <use xlink:href="#DejaVuSans-6b"/>
     <use xlink:href="#DejaVuSans-69" transform="translate(57.910156 0)"/>
     <use xlink:href="#DejaVuSans-6e" transform="translate(85.693359 0)"/>
    </g>
   </g>
   <g id="text_16">
    <!-- lug -->
    <g transform="translate(367.041336 177.594795) scale(0.08 -0.08)">
     <defs>
      <path id="DejaVuSans-75" d="M 544 1381 
L 544 3500 
L 1119 3500 
L 1119 1403 
Q 1119 906 1312 657 
Q 1506 409 1894 409 
Q 2359 409 2629 706 
Q 2900 1003 2900 1516 
L 2900 3500 
L 3475 3500 
L 3475 0 
L 2900 0 
L 2900 538 
Q 2691 219 2414 64 
Q 2138 -91 1772 -91 
Q 1169 -91 856 284 
Q 544 659 544 1381 
z
M 1991 3584 
L 1991 3584 
z
" transform="scale(0.015625)"/>
      <path id="DejaVuSans-67" d="M 2906 1791 
Q 2906 2416 2648 2759 
Q 2391 3103 1925 3103 
Q 1463 3103 1205 2759 
Q 947 2416 947 1791 
Q 947 1169 1205 825 
Q 1463 481 1925 481 
Q 2391 481 2648 825 
Q 2906 1169 2906 1791 
z
M 3481 434 
Q 3481 -459 3084 -895 
Q 2688 -1331 1869 -1331 
Q 1566 -1331 1297 -1286 
Q 1028 -1241 775 -1147 
L 775 -588 
Q 1028 -725 1275 -790 
Q 1522 -856 1778 -856 
Q 2344 -856 2625 -561 
Q 2906 -266 2906 331 
L 2906 616 
Q 2728 306 2450 153 
Q 2172 0 1784 0 
Q 1141 0 747 490 
Q 353 981 353 1791 
Q 353 2603 747 3093 
Q 1141 3584 1784 3584 
Q 2172 3584 2450 3431 
Q 2728 3278 2906 2969 
L 2906 3500 
L 3481 3500 
L 3481 434 
z
" transform="scale(0.015625)"/>
     </defs>
     <use xlink:href="#DejaVuSans-6c"/>
     <use xlink:href="#DejaVuSans-75" transform="translate(27.783203 0)"/>
     <use xlink:href="#DejaVuSans-67" transform="translate(91.162109 0)"/>
    </g>
   </g>
   <g id="text_17">
    <!-- luo -->
    <g transform="translate(308.811103 129.813159) scale(0.08 -0.08)">
     <use xlink:href="#DejaVuSans-6c"/>
     <use xlink:href="#DejaVuSans-75" transform="translate(27.783203 0)"/>
     <use xlink:href="#DejaVuSans-6f" transform="translate(91.162109 0)"/>
    </g>
   </g>
   <g id="text_18">
    <!-- swa -->
    <g transform="translate(259.606367 129.813159) scale(0.08 -0.08)">
     <defs>
      <path id="DejaVuSans-73" d="M 2834 3397 
L 2834 2853 
Q 2591 2978 2328 3040 
Q 2066 3103 1784 3103 
Q 1356 3103 1142 2972 
Q 928 2841 928 2578 
Q 928 2378 1081 2264 
Q 1234 2150 1697 2047 
L 1894 2003 
Q 2506 1872 2764 1633 
Q 3022 1394 3022 966 
Q 3022 478 2636 193 
Q 2250 -91 1575 -91 
Q 1294 -91 989 -36 
Q 684 19 347 128 
L 347 722 
Q 666 556 975 473 
Q 1284 391 1588 391 
Q 1994 391 2212 530 
Q 2431 669 2431 922 
Q 2431 1156 2273 1281 
Q 2116 1406 1581 1522 
L 1381 1569 
Q 847 1681 609 1914 
Q 372 2147 372 2553 
Q 372 3047 722 3315 
Q 1072 3584 1716 3584 
Q 2034 3584 2315 3537 
Q 2597 3491 2834 3397 
z
" transform="scale(0.015625)"/>
     </defs>
     <use xlink:href="#DejaVuSans-73"/>
     <use xlink:href="#DejaVuSans-77" transform="translate(52.099609 0)"/>
     <use xlink:href="#DejaVuSans-61" transform="translate(133.886719 0)"/>
    </g>
   </g>
   <g id="text_19">
    <!-- nya -->
    <g transform="translate(153.587969 34.249886) scale(0.08 -0.08)">
     <defs>
      <path id="DejaVuSans-79" d="M 2059 -325 
Q 1816 -950 1584 -1140 
Q 1353 -1331 966 -1331 
L 506 -1331 
L 506 -850 
L 844 -850 
Q 1081 -850 1212 -737 
Q 1344 -625 1503 -206 
L 1606 56 
L 191 3500 
L 800 3500 
L 1894 763 
L 2988 3500 
L 3597 3500 
L 2059 -325 
z
" transform="scale(0.015625)"/>
     </defs>
     <use xlink:href="#DejaVuSans-6e"/>
     <use xlink:href="#DejaVuSans-79" transform="translate(63.378906 0)"/>
     <use xlink:href="#DejaVuSans-61" transform="translate(122.558594 0)"/>
    </g>
   </g>
   <g id="text_20">
    <!-- sna -->
    <g transform="translate(131.972309 82.031523) scale(0.08 -0.08)">
     <use xlink:href="#DejaVuSans-73"/>
     <use xlink:href="#DejaVuSans-6e" transform="translate(52.099609 0)"/>
     <use xlink:href="#DejaVuSans-61" transform="translate(115.478516 0)"/>
    </g>
   </g>
   <g id="text_21">
    <!-- bbj -->
    <g transform="translate(110.857363 201.485614) scale(0.08 -0.08)">
     <defs>
      <path id="DejaVuSans-62" d="M 3116 1747 
Q 3116 2381 2855 2742 
Q 2594 3103 2138 3103 
Q 1681 3103 1420 2742 
Q 1159 2381 1159 1747 
Q 1159 1113 1420 752 
Q 1681 391 2138 391 
Q 2594 391 2855 752 
Q 3116 1113 3116 1747 
z
M 1159 2969 
Q 1341 3281 1617 3432 
Q 1894 3584 2278 3584 
Q 2916 3584 3314 3078 
Q 3713 2572 3713 1747 
Q 3713 922 3314 415 
Q 2916 -91 2278 -91 
Q 1894 -91 1617 61 
Q 1341 213 1159 525 
L 1159 0 
L 581 0 
L 581 4863 
L 1159 4863 
L 1159 2969 
z
" transform="scale(0.015625)"/>
      <path id="DejaVuSans-6a" d="M 603 3500 
L 1178 3500 
L 1178 -63 
Q 1178 -731 923 -1031 
Q 669 -1331 103 -1331 
L -116 -1331 
L -116 -844 
L 38 -844 
Q 366 -844 484 -692 
Q 603 -541 603 -63 
L 603 3500 
z
M 603 4863 
L 1178 4863 
L 1178 4134 
L 603 4134 
L 603 4863 
z
" transform="scale(0.015625)"/>
     </defs>
     <use xlink:href="#DejaVuSans-62"/>
     <use xlink:href="#DejaVuSans-62" transform="translate(63.476562 0)"/>
     <use xlink:href="#DejaVuSans-6a" transform="translate(126.953125 0)"/>
    </g>
   </g>
   <g id="text_22">
    <!-- ibo -->
    <g transform="translate(101.369096 141.758568) scale(0.08 -0.08)">
     <use xlink:href="#DejaVuSans-69"/>
     <use xlink:href="#DejaVuSans-62" transform="translate(27.783203 0)"/>
     <use xlink:href="#DejaVuSans-6f" transform="translate(91.259766 0)"/>
    </g>
   </g>
   <g id="text_23">
    <!-- tsn -->
    <g transform="translate(97.197785 93.976932) scale(0.08 -0.08)">
     <use xlink:href="#DejaVuSans-74"/>
     <use xlink:href="#DejaVuSans-73" transform="translate(39.208984 0)"/>
     <use xlink:href="#DejaVuSans-6e" transform="translate(91.308594 0)"/>
    </g>
   </g>
   <g id="text_24">
    <!-- yor -->
    <g transform="translate(92.13274 129.813159) scale(0.08 -0.08)">
     <defs>
      <path id="DejaVuSans-72" d="M 2631 2963 
Q 2534 3019 2420 3045 
Q 2306 3072 2169 3072 
Q 1681 3072 1420 2755 
Q 1159 2438 1159 1844 
L 1159 0 
L 581 0 
L 581 3500 
L 1159 3500 
L 1159 2956 
Q 1341 3275 1631 3429 
Q 1922 3584 2338 3584 
Q 2397 3584 2469 3576 
Q 2541 3569 2628 3553 
L 2631 2963 
z
" transform="scale(0.015625)"/>
     </defs>
     <use xlink:href="#DejaVuSans-79"/>
     <use xlink:href="#DejaVuSans-6f" transform="translate(59.179688 0)"/>
     <use xlink:href="#DejaVuSans-72" transform="translate(120.361328 0)"/>
    </g>
   </g>
   <g id="text_25">
    <!-- pcm -->
    <g transform="translate(91.716238 141.758568) scale(0.08 -0.08)">
     <defs>
      <path id="DejaVuSans-70" d="M 1159 525 
L 1159 -1331 
L 581 -1331 
L 581 3500 
L 1159 3500 
L 1159 2969 
Q 1341 3281 1617 3432 
Q 1894 3584 2278 3584 
Q 2916 3584 3314 3078 
Q 3713 2572 3713 1747 
Q 3713 922 3314 415 
Q 2916 -91 2278 -91 
Q 1894 -91 1617 61 
Q 1341 213 1159 525 
z
M 3116 1747 
Q 3116 2381 2855 2742 
Q 2594 3103 2138 3103 
Q 1681 3103 1420 2742 
Q 1159 2381 1159 1747 
Q 1159 1113 1420 752 
Q 1681 391 2138 391 
Q 2594 391 2855 752 
Q 3116 1113 3116 1747 
z
" transform="scale(0.015625)"/>
      <path id="DejaVuSans-63" d="M 3122 3366 
L 3122 2828 
Q 2878 2963 2633 3030 
Q 2388 3097 2138 3097 
Q 1578 3097 1268 2742 
Q 959 2388 959 1747 
Q 959 1106 1268 751 
Q 1578 397 2138 397 
Q 2388 397 2633 464 
Q 2878 531 3122 666 
L 3122 134 
Q 2881 22 2623 -34 
Q 2366 -91 2075 -91 
Q 1284 -91 818 406 
Q 353 903 353 1747 
Q 353 2603 823 3093 
Q 1294 3584 2113 3584 
Q 2378 3584 2631 3529 
Q 2884 3475 3122 3366 
z
" transform="scale(0.015625)"/>
      <path id="DejaVuSans-6d" d="M 3328 2828 
Q 3544 3216 3844 3400 
Q 4144 3584 4550 3584 
Q 5097 3584 5394 3201 
Q 5691 2819 5691 2113 
L 5691 0 
L 5113 0 
L 5113 2094 
Q 5113 2597 4934 2840 
Q 4756 3084 4391 3084 
Q 3944 3084 3684 2787 
Q 3425 2491 3425 1978 
L 3425 0 
L 2847 0 
L 2847 2094 
Q 2847 2600 2669 2842 
Q 2491 3084 2119 3084 
Q 1678 3084 1418 2786 
Q 1159 2488 1159 1978 
L 1159 0 
L 581 0 
L 581 3500 
L 1159 3500 
L 1159 2956 
Q 1356 3278 1631 3431 
Q 1906 3584 2284 3584 
Q 2666 3584 2933 3390 
Q 3200 3197 3328 2828 
z
" transform="scale(0.015625)"/>
     </defs>
     <use xlink:href="#DejaVuSans-70"/>
     <use xlink:href="#DejaVuSans-63" transform="translate(63.476562 0)"/>
     <use xlink:href="#DejaVuSans-6d" transform="translate(118.457031 0)"/>
    </g>
   </g>
   <g id="text_26">
    <!-- hau -->
    <g transform="translate(90.535047 129.813159) scale(0.08 -0.08)">
     <defs>
      <path id="DejaVuSans-68" d="M 3513 2113 
L 3513 0 
L 2938 0 
L 2938 2094 
Q 2938 2591 2744 2837 
Q 2550 3084 2163 3084 
Q 1697 3084 1428 2787 
Q 1159 2491 1159 1978 
L 1159 0 
L 581 0 
L 581 4863 
L 1159 4863 
L 1159 2956 
Q 1366 3272 1645 3428 
Q 1925 3584 2291 3584 
Q 2894 3584 3203 3211 
Q 3513 2838 3513 2113 
z
" transform="scale(0.015625)"/>
     </defs>
     <use xlink:href="#DejaVuSans-68"/>
     <use xlink:href="#DejaVuSans-61" transform="translate(63.378906 0)"/>
     <use xlink:href="#DejaVuSans-75" transform="translate(124.658203 0)"/>
    </g>
   </g>
   <g id="text_27">
    <!-- zul -->
    <g transform="translate(89.84789 141.758568) scale(0.08 -0.08)">
     <defs>
      <path id="DejaVuSans-7a" d="M 353 3500 
L 3084 3500 
L 3084 2975 
L 922 459 
L 3084 459 
L 3084 0 
L 275 0 
L 275 525 
L 2438 3041 
L 353 3041 
L 353 3500 
z
" transform="scale(0.015625)"/>
     </defs>
     <use xlink:href="#DejaVuSans-7a"/>
     <use xlink:href="#DejaVuSans-75" transform="translate(52.490234 0)"/>
     <use xlink:href="#DejaVuSans-6c" transform="translate(115.869141 0)"/>
    </g>
   </g>
   <g id="text_28">
    <!-- fon -->
    <g transform="translate(88.975516 225.376432) scale(0.08 -0.08)">
     <defs>
      <path id="DejaVuSans-66" d="M 2375 4863 
L 2375 4384 
L 1825 4384 
Q 1516 4384 1395 4259 
Q 1275 4134 1275 3809 
L 1275 3500 
L 2222 3500 
L 2222 3053 
L 1275 3053 
L 1275 0 
L 697 0 
L 697 3053 
L 147 3053 
L 147 3500 
L 697 3500 
L 697 3744 
Q 697 4328 969 4595 
Q 1241 4863 1831 4863 
L 2375 4863 
z
" transform="scale(0.015625)"/>
     </defs>
     <use xlink:href="#DejaVuSans-66"/>
     <use xlink:href="#DejaVuSans-6f" transform="translate(35.205078 0)"/>
     <use xlink:href="#DejaVuSans-6e" transform="translate(96.386719 0)"/>
    </g>
   </g>
   <g id="text_29">
    <!-- ewe -->
    <g transform="translate(87.775924 332.885114) scale(0.08 -0.08)">
     <defs>
      <path id="DejaVuSans-65" d="M 3597 1894 
L 3597 1613 
L 953 1613 
Q 991 1019 1311 708 
Q 1631 397 2203 397 
Q 2534 397 2845 478 
Q 3156 559 3463 722 
L 3463 178 
Q 3153 47 2828 -22 
Q 2503 -91 2169 -91 
Q 1331 -91 842 396 
Q 353 884 353 1716 
Q 353 2575 817 3079 
Q 1281 3584 2069 3584 
Q 2775 3584 3186 3129 
Q 3597 2675 3597 1894 
z
M 3022 2063 
Q 3016 2534 2758 2815 
Q 2500 3097 2075 3097 
Q 1594 3097 1305 2825 
Q 1016 2553 972 2059 
L 3022 2063 
z
" transform="scale(0.015625)"/>
     </defs>
     <use xlink:href="#DejaVuSans-65"/>
     <use xlink:href="#DejaVuSans-77" transform="translate(61.523438 0)"/>
     <use xlink:href="#DejaVuSans-65" transform="translate(143.310547 0)"/>
    </g>
   </g>
   <g id="text_30">
    <!-- xho -->
    <g transform="translate(87.768967 82.031523) scale(0.08 -0.08)">
     <defs>
      <path id="DejaVuSans-78" d="M 3513 3500 
L 2247 1797 
L 3578 0 
L 2900 0 
L 1881 1375 
L 863 0 
L 184 0 
L 1544 1831 
L 300 3500 
L 978 3500 
L 1906 2253 
L 2834 3500 
L 3513 3500 
z
" transform="scale(0.015625)"/>
     </defs>
     <use xlink:href="#DejaVuSans-78"/>
     <use xlink:href="#DejaVuSans-68" transform="translate(59.179688 0)"/>
     <use xlink:href="#DejaVuSans-6f" transform="translate(122.558594 0)"/>
    </g>
   </g>
   <g id="text_31">
    <!-- mos -->
    <g transform="translate(84.070513 129.813159) scale(0.08 -0.08)">
     <use xlink:href="#DejaVuSans-6d"/>
     <use xlink:href="#DejaVuSans-6f" transform="translate(97.412109 0)"/>
     <use xlink:href="#DejaVuSans-73" transform="translate(158.59375 0)"/>
    </g>
   </g>
   <g id="text_32">
    <!-- bam -->
    <g transform="translate(79.959948 201.485614) scale(0.08 -0.08)">
     <use xlink:href="#DejaVuSans-62"/>
     <use xlink:href="#DejaVuSans-61" transform="translate(63.476562 0)"/>
     <use xlink:href="#DejaVuSans-6d" transform="translate(124.755859 0)"/>
    </g>
   </g>
   <g id="text_33">
    <!-- wol -->
    <g transform="translate(77.533977 93.976932) scale(0.08 -0.08)">
     <use xlink:href="#DejaVuSans-77"/>
     <use xlink:href="#DejaVuSans-6f" transform="translate(81.787109 0)"/>
     <use xlink:href="#DejaVuSans-6c" transform="translate(142.96875 0)"/>
    </g>
   </g>
   <g id="text_34">
    <!-- r=0.09 -->
    <g transform="translate(64.43845 36.486537) scale(0.1 -0.1)">
     <defs>
      <path id="DejaVuSans-3d" d="M 678 2906 
L 4684 2906 
L 4684 2381 
L 678 2381 
L 678 2906 
z
M 678 1631 
L 4684 1631 
L 4684 1100 
L 678 1100 
L 678 1631 
z
" transform="scale(0.015625)"/>
     </defs>
     <use xlink:href="#DejaVuSans-72"/>
     <use xlink:href="#DejaVuSans-3d" transform="translate(41.113281 0)"/>
     <use xlink:href="#DejaVuSans-30" transform="translate(124.902344 0)"/>
     <use xlink:href="#DejaVuSans-2e" transform="translate(188.525391 0)"/>
     <use xlink:href="#DejaVuSans-30" transform="translate(220.3125 0)"/>
     <use xlink:href="#DejaVuSans-39" transform="translate(283.935547 0)"/>
    </g>
   </g>
   <g id="text_35">
    <!-- S_total vs F1 — cotrain / xlmr -->
    <g transform="translate(166.410625 16.318125) scale(0.12 -0.12)">
     <defs>
      <path id="DejaVuSans-20" transform="scale(0.015625)"/>
      <path id="DejaVuSans-76" d="M 191 3500 
L 800 3500 
L 1894 563 
L 2988 3500 
L 3597 3500 
L 2284 0 
L 1503 0 
L 191 3500 
z
" transform="scale(0.015625)"/>
      <path id="DejaVuSans-2014" d="M 313 1978 
L 6088 1978 
L 6088 1528 
L 313 1528 
L 313 1978 
z
" transform="scale(0.015625)"/>
      <path id="DejaVuSans-2f" d="M 1625 4666 
L 2156 4666 
L 531 -594 
L 0 -594 
L 1625 4666 
z
" transform="scale(0.015625)"/>
     </defs>
     <use xlink:href="#DejaVuSans-53"/>
     <use xlink:href="#DejaVuSans-5f" transform="translate(63.476562 0)"/>
     <use xlink:href="#DejaVuSans-74" transform="translate(113.476562 0)"/>
     <use xlink:href="#DejaVuSans-6f" transform="translate(152.685547 0)"/>
     <use xlink:href="#DejaVuSans-74" transform="translate(213.867188 0)"/>
     <use xlink:href="#DejaVuSans-61" transform="translate(253.076172 0)"/>
     <use xlink:href="#DejaVuSans-6c" transform="translate(314.355469 0)"/>
     <use xlink:href="#DejaVuSans-20" transform="translate(342.138672 0)"/>
     <use xlink:href="#DejaVuSans-76" transform="translate(373.925781 0)"/>
     <use xlink:href="#DejaVuSans-73" transform="translate(433.105469 0)"/>
     <use xlink:href="#DejaVuSans-20" transform="translate(485.205078 0)"/>
     <use xlink:href="#DejaVuSans-46" transform="translate(516.992188 0)"/>
     <use xlink:href="#DejaVuSans-31" transform="translate(574.511719 0)"/>
     <use xlink:href="#DejaVuSans-20" transform="translate(638.134766 0)"/>
     <use xlink:href="#DejaVuSans-2014" transform="translate(669.921875 0)"/>
     <use xlink:href="#DejaVuSans-20" transform="translate(769.921875 0)"/>
     <use xlink:href="#DejaVuSans-63" transform="translate(801.708984 0)"/>
     <use xlink:href="#DejaVuSans-6f" transform="translate(856.689453 0)"/>
     <use xlink:href="#DejaVuSans-74" transform="translate(917.871094 0)"/>
     <use xlink:href="#DejaVuSans-72" transform="translate(957.080078 0)"/>
     <use xlink:href="#DejaVuSans-61" transform="translate(998.193359 0)"/>
     <use xlink:href="#DejaVuSans-69" transform="translate(1059.472656 0)"/>
     <use xlink:href="#DejaVuSans-6e" transform="translate(1087.255859 0)"/>
     <use xlink:href="#DejaVuSans-20" transform="translate(1150.634766 0)"/>
     <use xlink:href="#DejaVuSans-2f" transform="translate(1182.421875 0)"/>
     <use xlink:href="#DejaVuSans-20" transform="translate(1216.113281 0)"/>
     <use xlink:href="#DejaVuSans-78" transform="translate(1247.900391 0)"/>
     <use xlink:href="#DejaVuSans-6c" transform="translate(1307.080078 0)"/>
     <use xlink:href="#DejaVuSans-6d" transform="translate(1334.863281 0)"/>
     <use xlink:href="#DejaVuSans-72" transform="translate(1432.275391 0)"/>
    </g>
   </g>
  </g>
 </g>
 <defs>
  <clipPath id="pa820ad0e35">
   <rect x="56.50625" y="22.318125" width="396.61" height="328.49875"/>
  </clipPath>
 </defs>
</svg>
